<?xml version="1.0" encoding="utf-8"?>
<!-- Generator: Adobe Illustrator 26.0.1, SVG Export Plug-In . SVG Version: 6.00 Build 0)  -->
<svg version="1.1" id="图层_1" xmlns="http://www.w3.org/2000/svg" xmlns:xlink="http://www.w3.org/1999/xlink" x="0px" y="0px"
	 viewBox="0 0 293.23 107.87" style="enable-background:new 0 0 293.23 107.87;" xml:space="preserve">
<style type="text/css">
	.st0{fill-rule:evenodd;clip-rule:evenodd;fill:url(#SVGID_1_);}
</style>
<g>
	<g>
		<linearGradient id="SVGID_1_" gradientUnits="userSpaceOnUse" x1="146.6149" y1="-0.5649" x2="146.6149" y2="105.8024">
			<stop  offset="0" style="stop-color:#FFFFFF"/>
			<stop  offset="1" style="stop-color:#B5B0D0"/>
		</linearGradient>
		<path class="st0" d="M19.08,33.45H6.19c-2.71,0-4.91,2.2-4.91,4.91v62.81c0,2.71,2.2,4.91,4.91,4.91h12.89
			c2.71,0,4.91-2.2,4.91-4.91V38.36C24,35.65,21.8,33.45,19.08,33.45z M12.64,0C4.98,0,0,4.6,0,11.62c0,7.15,4.98,11.74,12.64,11.74
			c7.53,0,12.64-4.6,12.64-11.74C25.28,4.6,20.17,0,12.64,0z M92.62,88.34H76.38c-3.96,0-6.29-4.44-4.05-7.7l23.31-33.8
			c0.57-0.82,0.87-1.79,0.87-2.79v-5.68c0-2.71-2.2-4.91-4.91-4.91H46.91c-2.71,0-4.91,2.2-4.91,4.91v7.91
			c0,2.71,2.2,4.91,4.91,4.91h11.9c3.96,0,6.29,4.44,4.05,7.7L39.55,92.7c-0.57,0.82-0.87,1.79-0.87,2.79v5.68
			c0,2.71,2.2,4.91,4.91,4.91h49.02c2.71,0,4.91-2.2,4.91-4.91v-7.91C97.53,90.54,95.33,88.34,92.62,88.34z M152.74,93.69
			c-0.55-2.56-3.03-4.16-5.61-3.75c-0.71,0.11-1.42,0.18-2.11,0.18c-5.36,0-9.19-3.19-9.19-11.23V56.11c0-2.71,2.2-4.91,4.91-4.91
			h7.28c2.71,0,4.91-2.2,4.91-4.91v-7.91c0-2.71-2.2-4.91-4.91-4.91h-7.28c-2.71,0-4.91-2.2-4.91-4.91v-9.45
			c0-2.71-2.2-4.91-4.91-4.91h-9.54c-2.46,0-4.55,1.83-4.87,4.27l-1.47,11.07c-0.3,2.3-2.17,4.07-4.48,4.25l-2.75,0.22
			c-2.56,0.2-4.53,2.34-4.53,4.9v7.4c0,2.71,2.2,4.91,4.91,4.91s4.91,2.2,4.91,4.91v23.04c0,17.11,7.4,28.72,25.66,28.72
			c4.77,0,8.63-0.63,11.8-1.39c2.61-0.62,4.25-3.21,3.68-5.83L152.74,93.69z M211.9,31.85c-1.06-0.12-2.28-0.19-3.69-0.19
			c-7.28,0-15.32,4.72-20.68,14.43h-0.38l-1.1-8.36c-0.32-2.45-2.41-4.27-4.87-4.27h-9.28c-2.71,0-4.91,2.2-4.91,4.91v62.81
			c0,2.71,2.2,4.91,4.91,4.91h12.89c2.71,0,4.91-2.2,4.91-4.91V65.56c0-0.64,0.12-1.28,0.36-1.87c3.75-8.89,10.02-12.12,15.21-12.12
			c1.28,0,2.39,0.08,3.44,0.22c2.6,0.35,5.04-1.35,5.53-3.93l1.94-10.21C216.71,34.84,214.74,32.18,211.9,31.85z M257.74,31.66
			c-18.51,0-35.62,14.04-35.62,38.04c0,24.13,17.11,38.17,35.62,38.17c18.38,0,35.49-14.04,35.49-38.17
			C293.23,45.7,276.12,31.66,257.74,31.66z M257.74,89.49c-8.55,0-12.38-7.66-12.38-19.79c0-12,3.83-19.66,12.38-19.66
			c8.43,0,12.26,7.66,12.26,19.66C270,81.83,266.17,89.49,257.74,89.49z M232.6,24.58l-1.37,14.39c0,0,6.82-6.72,14.39-8.91
			L232.6,24.58z M284.49,24.58l-13.02,5.48c7.57,2.18,14.39,8.91,14.39,8.91L284.49,24.58z"/>
	</g>
</g>
</svg>
